<svg xmlns="http://www.w3.org/2000/svg" viewBox="0 0 133.7 31.51"><g id="Capa_2" data-name="Capa 2"><g id="Capa_1-2" data-name="Capa 1"><path d="M0,.62A.36.36,0,0,1,.09.36.31.31,0,0,1,.35.26H5.46a3.49,3.49,0,0,1,1,.15,3.38,3.38,0,0,1,.9.42,3.74,3.74,0,0,1,.74.64,4.37,4.37,0,0,1,.55.8A4.18,4.18,0,0,1,9,3.18a4,4,0,0,1,.12,1A4,4,0,0,1,8.9,5.55,3.73,3.73,0,0,1,7,7.64,3.23,3.23,0,0,1,5.52,8H3.1v3.81a.32.32,0,0,1-.37.35H.35a.35.35,0,0,1-.25-.09.3.3,0,0,1-.1-.26ZM6,4.13a1.34,1.34,0,0,0-.08-.48,1.49,1.49,0,0,0-.24-.43,1.3,1.3,0,0,0-.39-.31,1.11,1.11,0,0,0-.52-.12H3.1V5.46H4.79a1.24,1.24,0,0,0,.52-.11,1.19,1.19,0,0,0,.39-.3,1.64,1.64,0,0,0,.24-.43A1.36,1.36,0,0,0,6,4.13Z"/><path d="M10.62.6a.37.37,0,0,1,.09-.25A.35.35,0,0,1,11,.25h2.36a.38.38,0,0,1,.25.09.32.32,0,0,1,.12.26V9.3h4.4a.37.37,0,0,1,.25.1.33.33,0,0,1,.1.26v2.11a.4.4,0,0,1-.09.25.38.38,0,0,1-.26.12H11c-.24,0-.35-.12-.35-.36Z"/><path d="M23.38,7.4a2.68,2.68,0,0,0,.17,1,1.93,1.93,0,0,0,.43.68,1.69,1.69,0,0,0,.63.38,2.25,2.25,0,0,0,.74.12,2.08,2.08,0,0,0,.75-.14A1.93,1.93,0,0,0,26.73,9a2.08,2.08,0,0,0,.43-.69,2.67,2.67,0,0,0,.15-.93V.61a.33.33,0,0,1,.1-.25.36.36,0,0,1,.27-.1H30a.37.37,0,0,1,.28.1.38.38,0,0,1,.11.25V7.35A6,6,0,0,1,30,9.7a4.16,4.16,0,0,1-1.11,1.54,4.41,4.41,0,0,1-1.61.83,7.19,7.19,0,0,1-1.93.25,7.25,7.25,0,0,1-1.93-.26,4.22,4.22,0,0,1-1.61-.85A4,4,0,0,1,20.7,9.68a5.78,5.78,0,0,1-.41-2.33V.61a.4.4,0,0,1,.09-.25.29.29,0,0,1,.23-.1H23a.4.4,0,0,1,.25.1.29.29,0,0,1,.13.25Z"/><path d="M32.74.62a.36.36,0,0,1,.09-.26.33.33,0,0,1,.27-.1h5.16a3.88,3.88,0,0,1,2.8,1.14,3.86,3.86,0,0,1,.85,1.24,3.8,3.8,0,0,1,.31,1.5,3.53,3.53,0,0,1-.15,1,4.23,4.23,0,0,1-.41.92,4.68,4.68,0,0,1-.63.78,4.13,4.13,0,0,1-.8.59l2.06,3.87a1.76,1.76,0,0,0,.14.27.54.54,0,0,1,.09.26.26.26,0,0,1-.08.2.42.42,0,0,1-.23.07H39.46a.41.41,0,0,1-.24-.08.4.4,0,0,1-.14-.22L37.14,8.18h-1.3v3.61c0,.23-.12.35-.37.35H33.1a.36.36,0,0,1-.26-.09.33.33,0,0,1-.1-.26ZM39,4.18a1.36,1.36,0,0,0-.09-.48,1.48,1.48,0,0,0-.25-.44,1.37,1.37,0,0,0-.38-.34,1.43,1.43,0,0,0-.5-.18l-.42,0-.43,0h-1.1V5.64h1.73l.25,0a1.24,1.24,0,0,0,.5-.17,1.3,1.3,0,0,0,.38-.32,1.67,1.67,0,0,0,.23-.44A1.74,1.74,0,0,0,39,4.18Z"/><path d="M44,.61A.36.36,0,0,1,44.1.36a.33.33,0,0,1,.27-.1h2.35A.51.51,0,0,1,47,.35a.3.3,0,0,1,.13.26V11.78q0,.36-.39.36H44.37c-.24,0-.35-.12-.35-.36Z"/><path d="M53,12c-.06-.1-.11-.2-.16-.3s-.09-.2-.13-.31L48.57.62s0-.05,0-.08a.14.14,0,0,1,0-.06c0-.15.1-.22.3-.22h2.58a.41.41,0,0,1,.41.3l2.44,7.28c.22-.61.43-1.22.63-1.82s.4-1.21.59-1.82l.59-1.82c.2-.61.41-1.21.63-1.82a.43.43,0,0,1,.44-.3h2.52a.43.43,0,0,1,.26.06A.25.25,0,0,1,60,.5a.55.55,0,0,1,0,.09v0L55.87,11.36c0,.07-.06.16-.09.25a2,2,0,0,1-.13.25,1.12,1.12,0,0,1-.17.2.35.35,0,0,1-.22.08h-2A.33.33,0,0,1,53,12Z"/><path d="M61.45.62a.36.36,0,0,1,.09-.26.33.33,0,0,1,.26-.1h7.94a.36.36,0,0,1,.27.1.41.41,0,0,1,.09.28v2a.45.45,0,0,1-.09.26.35.35,0,0,1-.28.12H64.54V5h4a.39.39,0,0,1,.25.08.25.25,0,0,1,.11.24V7a.33.33,0,0,1-.35.32h-4V9.39h5.38a.32.32,0,0,1,.36.37v2a.17.17,0,0,1-.07.14c0,.15-.13.23-.32.23H61.8a.37.37,0,0,1-.26-.09.33.33,0,0,1-.09-.26Z"/><path d="M72.26.62a.36.36,0,0,1,.09-.26.33.33,0,0,1,.27-.1h5.16a3.88,3.88,0,0,1,2.8,1.14,3.86,3.86,0,0,1,.85,1.24,3.8,3.8,0,0,1,.31,1.5,3.53,3.53,0,0,1-.15,1,3.83,3.83,0,0,1-.42.92,3.78,3.78,0,0,1-1.42,1.37l2.06,3.87a1.76,1.76,0,0,0,.14.27.54.54,0,0,1,.09.26.26.26,0,0,1-.08.2.42.42,0,0,1-.23.07H79a.41.41,0,0,1-.24-.08.4.4,0,0,1-.14-.22L76.66,8.18h-1.3v3.61c0,.23-.12.35-.37.35H72.62a.36.36,0,0,1-.26-.09.3.3,0,0,1-.1-.26Zm6.27,3.56a1.36,1.36,0,0,0-.09-.48,1.48,1.48,0,0,0-.25-.44,1.37,1.37,0,0,0-.38-.34,1.43,1.43,0,0,0-.5-.18l-.42,0-.43,0h-1.1V5.64h1.73l.24,0a1.23,1.23,0,0,0,.51-.17,1.14,1.14,0,0,0,.37-.32,1.45,1.45,0,0,0,.24-.44A1.74,1.74,0,0,0,78.53,4.18Z"/><path d="M85,8.3l.35.3c.14.12.3.24.48.37a3.92,3.92,0,0,0,.81.42,2.4,2.4,0,0,0,.84.15,2.2,2.2,0,0,0,.68-.09,1.15,1.15,0,0,0,.44-.24.89.89,0,0,0,.23-.35,1.54,1.54,0,0,0,.06-.43A.64.64,0,0,0,88.71,8a2.07,2.07,0,0,0-.46-.35,3.68,3.68,0,0,0-.57-.26l-.51-.18a11.15,11.15,0,0,1-1.68-.72,5.44,5.44,0,0,1-1.2-.86,3.29,3.29,0,0,1-.72-1,3.28,3.28,0,0,1-.24-1.28A2.95,2.95,0,0,1,84.48.9,4.09,4.09,0,0,1,85.82.24,6,6,0,0,1,87.58,0,5.75,5.75,0,0,1,89,.16a5.44,5.44,0,0,1,1.32.53c.18.1.35.22.51.33a4.34,4.34,0,0,1,.43.33,2,2,0,0,1,.29.31.42.42,0,0,1,.11.24.46.46,0,0,1,0,.2l-.16.2L90.2,3.6a.4.4,0,0,1-.27.14.38.38,0,0,1-.21-.07,1.27,1.27,0,0,1-.2-.16l-.07-.06c-.11-.09-.23-.19-.36-.28a3,3,0,0,0-.42-.26,2.72,2.72,0,0,0-.47-.19,1.74,1.74,0,0,0-.5-.08,2.6,2.6,0,0,0-.5,0,1.52,1.52,0,0,0-.41.14.78.78,0,0,0-.28.26.65.65,0,0,0-.1.38.61.61,0,0,0,.11.38,1.24,1.24,0,0,0,.33.31,3.29,3.29,0,0,0,.56.26l.77.27c.57.19,1.09.38,1.57.59A5.06,5.06,0,0,1,91,6a2.89,2.89,0,0,1,.81,1,3.07,3.07,0,0,1,.3,1.42A3.51,3.51,0,0,1,91.73,10a3.56,3.56,0,0,1-1,1.22,4.45,4.45,0,0,1-1.48.78,5.64,5.64,0,0,1-1.82.28A5.17,5.17,0,0,1,85.63,12,7.15,7.15,0,0,1,84,11.08a5.35,5.35,0,0,1-.54-.46l-.34-.36,0,0v0h0l0,0h0a.58.58,0,0,1-.19-.32A.51.51,0,0,1,83,9.54l1.38-1.32a.56.56,0,0,1,.28-.12.37.37,0,0,1,.15.05Z"/><path d="M94,.61a.37.37,0,0,1,.09-.25.31.31,0,0,1,.26-.1h2.35A.48.48,0,0,1,97,.35a.31.31,0,0,1,.14.26V11.78c0,.24-.13.36-.4.36H94.38a.32.32,0,0,1-.35-.36Z"/><path d="M110,6.21a5.69,5.69,0,0,1-.22,1.61,5.8,5.8,0,0,1-.61,1.42,6.17,6.17,0,0,1-1,1.2,5.76,5.76,0,0,1-1.23.91,6,6,0,0,1-1.46.58,6.2,6.2,0,0,1-1.62.21h-4a.52.52,0,0,1-.25-.07q-.12-.06-.12-.27V.62a.36.36,0,0,1,.1-.27.33.33,0,0,1,.27-.1h4a6.2,6.2,0,0,1,1.62.21,5.59,5.59,0,0,1,1.45.59A6.13,6.13,0,0,1,108.2,2a5.77,5.77,0,0,1,1,1.2,5.9,5.9,0,0,1,.62,1.43A5.69,5.69,0,0,1,110,6.21Zm-7.32-3.09V9.27h1l.35,0a3.19,3.19,0,0,0,1.12-.29,3.11,3.11,0,0,0,.91-.64,2.84,2.84,0,0,0,.61-.93,3,3,0,0,0,.22-1.17A3,3,0,0,0,106.66,5,3.06,3.06,0,0,0,106,4a2.86,2.86,0,0,0-1-.64,3.36,3.36,0,0,0-1.23-.23Z"/><path d="M114.57.57a.21.21,0,0,1,.05-.11.55.55,0,0,1,.11-.1.57.57,0,0,1,.13-.08.36.36,0,0,1,.14,0h2a.32.32,0,0,1,.23.08l.14.15.2.45,4.2,10.84a.24.24,0,0,1,0,.26.42.42,0,0,1-.31.1H119.2a.59.59,0,0,1-.29-.07.44.44,0,0,1-.15-.23c-.11-.27-.21-.54-.31-.81s-.21-.54-.31-.81h-4.25l-.3.81c-.11.27-.21.54-.31.81a.41.41,0,0,1-.41.3h-2.36a.39.39,0,0,1-.25-.08.19.19,0,0,1,0-.24ZM116,4c-.1.27-.2.57-.31.88l-.3,1c-.11.32-.21.64-.31.95s-.21.61-.31.88h2.46Z"/><path d="M133.7,6.21a6.07,6.07,0,0,1-.21,1.61,5.83,5.83,0,0,1-.62,1.42,6.17,6.17,0,0,1-1,1.2,5.76,5.76,0,0,1-1.23.91,6,6,0,0,1-1.46.58,6.2,6.2,0,0,1-1.62.21h-3.95a.52.52,0,0,1-.25-.07c-.08,0-.11-.13-.11-.27V.62a.4.4,0,0,1,.09-.27.33.33,0,0,1,.27-.1h3.95a6.2,6.2,0,0,1,1.62.21,5.59,5.59,0,0,1,1.45.59,5.87,5.87,0,0,1,1.24.92,6.17,6.17,0,0,1,1,1.2,6.29,6.29,0,0,1,.61,1.43A5.69,5.69,0,0,1,133.7,6.21Zm-7.32-3.09V9.27h1l.36,0a3.25,3.25,0,0,0,1.12-.29,3.07,3.07,0,0,0,.9-.64,2.84,2.84,0,0,0,.61-.93,3,3,0,0,0,.22-1.17A3,3,0,0,0,130.37,5a3.2,3.2,0,0,0-.68-1,3,3,0,0,0-1-.64,3.32,3.32,0,0,0-1.23-.23Z"/><path d="M.18,19.81a.37.37,0,0,1,.09-.25.33.33,0,0,1,.27-.1H3.15a.48.48,0,0,1,.23.05.54.54,0,0,1,.21.19c.68,1.1,1.35,2.17,2,3.23s1.34,2.14,2,3.24V19.76a.37.37,0,0,1,.13-.22A.3.3,0,0,1,8,19.46h2.28a.41.41,0,0,1,.28.09.31.31,0,0,1,.12.26V31a.3.3,0,0,1-.1.24.4.4,0,0,1-.26.07H7.74a.24.24,0,0,1-.18-.07,1.72,1.72,0,0,1-.17-.19l-2.1-3.48L3.18,24.11V31a.41.41,0,0,1-.08.27.39.39,0,0,1-.29.08H.54a.34.34,0,0,1-.27-.09A.37.37,0,0,1,.18,31Z"/><path d="M12.71,25.41a5.83,5.83,0,0,1,.22-1.63,6.09,6.09,0,0,1,.61-1.46,6.2,6.2,0,0,1,1-1.25,5.75,5.75,0,0,1,1.24-.95,6.11,6.11,0,0,1,1.46-.62,6.11,6.11,0,0,1,3.25,0,6.18,6.18,0,0,1,1.47.62,6.29,6.29,0,0,1,1.24.95,6.2,6.2,0,0,1,1,1.25,6.52,6.52,0,0,1,.61,1.46A5.83,5.83,0,0,1,25,25.41,5.94,5.94,0,0,1,24.73,27a6.64,6.64,0,0,1-.61,1.45,6.36,6.36,0,0,1-1,1.23,6.75,6.75,0,0,1-1.24,1,6.26,6.26,0,0,1-3.09.83,5.83,5.83,0,0,1-1.63-.22,5.71,5.71,0,0,1-1.46-.61,6.13,6.13,0,0,1-1.24-1,6.36,6.36,0,0,1-1-1.23A6.19,6.19,0,0,1,12.93,27,5.94,5.94,0,0,1,12.71,25.41Zm3.1,0A3.41,3.41,0,0,0,16,26.64a3.05,3.05,0,0,0,4,1.68,2.85,2.85,0,0,0,.95-.68,3,3,0,0,0,.63-1,3.46,3.46,0,0,0,0-2.48,3.19,3.19,0,0,0-.63-1,2.85,2.85,0,0,0-.95-.68,3,3,0,0,0-3.39.68,3.19,3.19,0,0,0-.63,1A3.41,3.41,0,0,0,15.81,25.4Zm2.48-9.16a.37.37,0,0,1,.16-.26.5.5,0,0,1,.26-.08h2.07A.3.3,0,0,1,21,16a.25.25,0,0,1,.08.12.48.48,0,0,1,0,.17.64.64,0,0,1-.06.18l-.78,1.71a.83.83,0,0,1-.19.26.36.36,0,0,1-.24.08H18a.21.21,0,0,1-.17-.06.29.29,0,0,1,0-.16,1.54,1.54,0,0,1,0-.19c0-.07,0-.13,0-.17Z"/><path d="M27.57,19.81a.44.44,0,0,1,.11-.25.33.33,0,0,1,.27-.1h2.77a.37.37,0,0,1,.38.3L33.28,27l2.19-7.26a.41.41,0,0,1,.41-.3h2.74a.37.37,0,0,1,.39.35c.18,1.87.37,3.74.57,5.58s.38,3.72.57,5.59v0c0,.21-.12.31-.35.31H37.54c-.25,0-.38-.11-.39-.35l-.69-6.18L34.66,31a.46.46,0,0,1-.12.19.27.27,0,0,1-.2.12h-2.1a.31.31,0,0,1-.2-.11.29.29,0,0,1-.12-.2l-1.8-6.2L29.42,31c0,.24-.14.35-.39.35H26.77a.31.31,0,0,1-.35-.35Z"/><path d="M45.67,19.77a.34.34,0,0,1,0-.11l.11-.1.14-.08a.32.32,0,0,1,.13,0h2a.31.31,0,0,1,.23.08.53.53,0,0,1,.15.15l.2.45L52.93,31a.26.26,0,0,1,0,.27.41.41,0,0,1-.3.09H50.3a.55.55,0,0,1-.28-.06.45.45,0,0,1-.16-.23l-.31-.81-.3-.81H45c-.1.27-.2.54-.31.81l-.31.81a.39.39,0,0,1-.4.29H41.62a.37.37,0,0,1-.26-.08.19.19,0,0,1,0-.24Zm1.46,3.42c-.1.27-.21.57-.31.88s-.21.63-.31.95-.2.64-.31.95-.2.61-.3.88h2.45Z"/><path d="M64.81,25.41A5.69,5.69,0,0,1,64.59,27,5.8,5.8,0,0,1,64,28.44a6.17,6.17,0,0,1-1,1.2,5.76,5.76,0,0,1-1.23.91,6,6,0,0,1-1.46.58,6.33,6.33,0,0,1-1.63.2H54.76a.55.55,0,0,1-.26-.06.29.29,0,0,1-.11-.27V19.82a.4.4,0,0,1,.09-.27.36.36,0,0,1,.28-.1H58.7a6.2,6.2,0,0,1,1.62.21,5.66,5.66,0,0,1,1.46.59,6.13,6.13,0,0,1,1.24.92,5.29,5.29,0,0,1,.95,1.2,5.9,5.9,0,0,1,.62,1.43A6.08,6.08,0,0,1,64.81,25.41Zm-7.32-3.09v6.15h1l.35,0A3.25,3.25,0,0,0,60,28.14a3.11,3.11,0,0,0,.91-.64,2.94,2.94,0,0,0,.61-.93,3.2,3.2,0,0,0,.22-1.17,3.16,3.16,0,0,0-.25-1.24,3.06,3.06,0,0,0-.69-1,3,3,0,0,0-1-.64,3.22,3.22,0,0,0-1.24-.23Z"/><path d="M69.37,19.77a.21.21,0,0,1,0-.11.55.55,0,0,1,.11-.1.57.57,0,0,1,.13-.08.36.36,0,0,1,.14,0h2a.32.32,0,0,1,.23.08.64.64,0,0,1,.14.15l.2.45L76.62,31a.24.24,0,0,1,0,.27.43.43,0,0,1-.31.09H74a.6.6,0,0,1-.29-.06.51.51,0,0,1-.15-.23c-.11-.27-.21-.54-.31-.81l-.31-.81H68.69l-.3.81c-.11.27-.21.54-.31.81a.4.4,0,0,1-.41.29H65.31a.34.34,0,0,1-.25-.08C65,31.2,65,31.12,65,31Zm1.45,3.42c-.1.27-.2.57-.31.88l-.3.95c-.1.32-.21.64-.31.95s-.21.61-.31.88h2.46Z"/></g></g></svg>